<?xml version="1.0" encoding="UTF-8" standalone="no"?>
<svg width="44px" height="44px" viewBox="0 0 44 44" version="1.1" xmlns="http://www.w3.org/2000/svg" xmlns:xlink="http://www.w3.org/1999/xlink">
    <!-- Generator: Sketch 42 (36781) - http://www.bohemiancoding.com/sketch -->
    <title>behance</title>
    <desc>Created with Sketch.</desc>
    <defs>
        <circle id="path-1" cx="22" cy="22" r="22"></circle>
        <mask id="mask-2" maskContentUnits="userSpaceOnUse" maskUnits="objectBoundingBox" x="0" y="0" width="44" height="44" fill="white">
            <use xlink:href="#path-1"></use>
        </mask>
    </defs>
    <g id="Social-Icons" stroke="none" stroke-width="1" fill="none" fill-rule="evenodd">
        <g transform="translate(-180.000000, -240.000000)" id="behance">
            <g transform="translate(180.000000, 240.000000)">
                <rect id="Rectangle" x="0" y="0" width="44" height="44"></rect>
                <use id="Oval" stroke="#0A6155" mask="url(#mask-2)" stroke-width="4" xlink:href="#path-1"></use>
                <path d="M21.6360265,16.4555815 C22.0312615,17.0375525 22.2301218,17.7306866 22.2301218,18.5402149 C22.2301218,19.3732835 22.0312615,20.044185 21.631055,20.5503036 C21.4048514,20.8340962 21.0754889,21.0943484 20.6392391,21.3284447 C21.3016926,21.5834657 21.8000863,21.9849603 22.1393918,22.5342363 C22.4762115,23.0822046 22.6439999,23.7504904 22.6439999,24.5351705 C22.6439999,25.3433909 22.4525968,26.0705278 22.066062,26.7113498 C21.8212152,27.1363849 21.5142246,27.4960299 21.1475758,27.7863615 C20.7336977,28.1198505 20.2464899,28.3474078 19.6822237,28.4716488 C19.1179574,28.5958898 18.5077048,28.6560486 17.847737,28.6560486 L12,28.6560486 L12,15 L18.2715581,15 C19.8549836,15.026156 20.9748159,15.510042 21.6360265,16.4555815 L21.6360265,16.4555815 Z M14.5876702,17.3723494 L14.5876702,20.3855208 L17.7433353,20.3855208 C18.3051158,20.3855208 18.7637375,20.2717422 19.1167146,20.0454928 C19.465963,19.8205511 19.6436945,19.4203643 19.6436945,18.8475479 C19.6436945,18.2106492 19.4112764,17.7908454 18.9464404,17.5855208 C18.5449911,17.4442784 18.0341686,17.3723494 17.41273,17.3723494 L14.5876702,17.3723494 L14.5876702,17.3723494 Z M14.5876702,22.6440915 L14.5876702,26.285007 L17.7383638,26.285007 C18.3013872,26.285007 18.7401228,26.2052312 19.0533278,26.0456796 C19.6225656,25.7475012 19.9059416,25.1799159 19.9059416,24.3416161 C19.9059416,23.628865 19.6325086,23.1423634 19.0806711,22.8755722 C18.7711947,22.7277908 18.3386735,22.6493227 17.7831074,22.6440915 L14.5876702,22.6440915 L14.5876702,22.6440915 Z M30.4902834,18.7638487 C31.161437,19.0790285 31.7132745,19.5773003 32.1470386,20.2573564 C32.5435164,20.8576366 32.7983062,21.5533863 32.9138938,22.3446053 C32.9810092,22.8088744 33.0095953,23.4771602 32.9971666,24.3494629 L26.0059826,24.3494629 C26.0469975,25.3630079 26.3788457,26.0731434 27.0102273,26.4798692 C27.3942764,26.7335824 27.8553838,26.8591312 28.3947925,26.8591312 C28.9640302,26.8591312 29.4301092,26.7061186 29.7868149,26.3974778 C29.9831895,26.2300794 30.1547065,25.9985988 30.3038518,25.7017282 L32.8654216,25.7017282 C32.7983062,26.3007006 32.4875869,26.9088277 31.9357495,27.5287249 C31.0769214,28.509575 29.8725734,29 28.3264342,29 C27.0487565,29 25.9202241,28.5867352 24.9470513,27.7575899 C23.9676641,26.9297525 23.4816991,25.5814106 23.4816991,23.7164876 C23.4816991,21.9653433 23.9216776,20.6248482 24.8016346,19.6897711 C25.6840774,18.7586175 26.8275244,18.290425 28.2332185,18.290425 C29.0684319,18.290425 29.8216155,18.447361 30.4902834,18.7638487 L30.4902834,18.7638487 Z M26.7367944,21.044652 C26.3825744,21.4291453 26.1588565,21.9509575 26.0681265,22.6074731 L30.3920961,22.6074731 C30.3473525,21.9064923 30.1223917,21.3755255 29.724671,21.011957 C29.3219788,20.6496964 28.8260709,20.4679122 28.2344613,20.4679122 C27.5918938,20.4679122 27.0910144,20.6601588 26.7367944,21.044652 L26.7367944,21.044652 Z M25.4193446,17.3370388 L30.979977,17.3370388 L30.979977,15.6382064 L25.4193446,15.6382064 L25.4193446,17.3370388 Z" id="Shape" fill="#0A6155"></path>
            </g>
        </g>
    </g>
</svg>