<?xml version="1.0" encoding="UTF-8" standalone="no"?>
<svg width="48px" height="48px" viewBox="0 0 48 48" version="1.1" xmlns="http://www.w3.org/2000/svg" xmlns:xlink="http://www.w3.org/1999/xlink">
    <!-- Generator: Sketch 42 (36781) - http://www.bohemiancoding.com/sketch -->
    <title>github</title>
    <desc>Created with Sketch.</desc>
    <defs>
        <circle id="path-1" cx="24" cy="24" r="24"></circle>
        <mask id="mask-2" maskContentUnits="userSpaceOnUse" maskUnits="objectBoundingBox" x="0" y="0" width="48" height="48" fill="white">
            <use xlink:href="#path-1"></use>
        </mask>
    </defs>
    <g id="Social-Icons" stroke="none" stroke-width="1" fill="none" fill-rule="evenodd">
        <g transform="translate(-60.000000, -300.000000)" id="github">
            <g transform="translate(60.000000, 300.000000)">
                <rect id="Rectangle" x="0" y="0" width="48" height="48"></rect>
                <use id="Oval" stroke="#000000" mask="url(#mask-2)" stroke-width="4" xlink:href="#path-1"></use>
                <path d="M10.9090909,24.3321096 C10.9090909,30.2616396 14.6596832,35.2930056 19.861651,37.0679094 C20.5166183,37.1915099 20.7552997,36.7770361 20.7552997,36.4210665 C20.7552997,36.1021771 20.7440487,35.2583974 20.7376196,34.1385765 C17.0963225,34.9493961 16.3280418,32.3389527 16.3280418,32.3389527 C15.7325438,30.7881779 14.8742553,30.3753521 14.8742553,30.3753521 C13.6856704,29.5422844 14.9642631,29.5595885 14.9642631,29.5595885 C16.278216,29.6543489 16.9693472,30.9430906 16.9693472,30.9430906 C18.1378412,32.9940355 20.0336301,32.4015769 20.7794089,32.0579674 C20.8983478,31.1902916 21.2366806,30.5994811 21.6103737,30.2632876 C18.7036044,29.9246221 15.6473579,28.7734891 15.6473579,23.6300586 C15.6473579,22.1641562 16.1576699,20.9660549 16.9950637,20.0275148 C16.8608557,19.6880253 16.4116204,18.3234753 17.1236463,16.4760593 C17.1236463,16.4760593 18.2230271,16.1143217 20.7231541,17.8513213 C21.7678873,17.553856 22.8873591,17.4047113 24.0004018,17.3997673 C25.1126409,17.4047113 26.2321127,17.553856 27.2784532,17.8513213 C29.7769729,16.1143217 30.8747464,16.4760593 30.8747464,16.4760593 C31.5883796,18.3234753 31.1391443,19.6880253 31.0049363,20.0275148 C31.8439374,20.9660549 32.3502312,22.1641562 32.3502312,23.6300586 C32.3502312,28.7858491 29.2899665,29.9205021 26.3735535,30.2533995 C26.8436835,30.6678734 27.2615768,31.4869329 27.2615768,32.7385944 C27.2615768,34.5332743 27.2463076,35.9810486 27.2463076,36.4210665 C27.2463076,36.7803321 27.4817744,37.1972779 28.1463854,37.0662614 C33.3435314,35.2880616 37.0909091,30.2608156 37.0909091,24.3321096 C37.0909091,16.9185492 31.2291521,10.9090909 23.9987945,10.9090909 C16.7708479,10.9090909 10.9090909,16.9185492 10.9090909,24.3321096 Z" id="Shape" fill="#000000"></path>
            </g>
        </g>
    </g>
</svg>