<?xml version="1.0" encoding="UTF-8" standalone="no"?>
<svg width="48px" height="48px" viewBox="0 0 48 48" version="1.1" xmlns="http://www.w3.org/2000/svg" xmlns:xlink="http://www.w3.org/1999/xlink">
    <!-- Generator: Sketch 42 (36781) - http://www.bohemiancoding.com/sketch -->
    <title>instagram</title>
    <desc>Created with Sketch.</desc>
    <defs>
        <circle id="path-1" cx="24" cy="24" r="24"></circle>
        <mask id="mask-2" maskContentUnits="userSpaceOnUse" maskUnits="objectBoundingBox" x="0" y="0" width="48" height="48" fill="white">
            <use xlink:href="#path-1"></use>
        </mask>
    </defs>
    <g id="Portfolio" stroke="none" stroke-width="1" fill="none" fill-rule="evenodd">
        <g id="Katjaleena-homepage-V2" transform="translate(-882.000000, -982.000000)">
            <g id="social-media" transform="translate(675.000000, 982.000000)">
                <g id="instagram" transform="translate(207.000000, 0.000000)">
                    <rect id="Rectangle" x="0" y="0" width="48" height="48"></rect>
                    <use id="Oval" stroke="#000000" mask="url(#mask-2)" stroke-width="4" xlink:href="#path-1"></use>
                    <path d="M30.7482361,13 L17.2517639,13 C14.9079257,13 13,14.9066322 13,17.2517639 L13,30.7482361 C13,33.0933678 14.9079257,35 17.2517639,35 L30.7482361,35 C33.0920743,35 35,33.0933678 35,30.7482361 L35,17.2517639 C35,14.9066322 33.0920743,13 30.7482361,13 L30.7482361,13 Z M31.9680151,15.536571 L32.4543744,15.533984 L32.4543744,19.2631703 L28.7368297,19.2748119 L28.7238946,15.5456256 L31.9680151,15.536571 L31.9680151,15.536571 Z M20.8606538,21.7415334 C21.5643227,20.7662277 22.7077846,20.1272342 24,20.1272342 C25.2922154,20.1272342 26.4356773,20.7662277 27.1393462,21.7415334 C27.5985419,22.3779398 27.8727658,23.1566322 27.8727658,24 C27.8727658,26.1342897 26.1355833,27.8714722 24,27.8714722 C21.8657103,27.8714722 20.1285278,26.1342897 20.1285278,24 C20.1285278,23.1566322 20.4027516,22.3779398 20.8606538,21.7415334 L20.8606538,21.7415334 Z M32.8566557,30.7482361 C32.8566557,31.9111007 31.9111007,32.8566557 30.7482361,32.8566557 L17.2517639,32.8566557 C16.0888993,32.8566557 15.1433443,31.9111007 15.1433443,30.7482361 L15.1433443,21.7415334 L18.428857,21.7415334 C18.144285,22.4400282 17.9851834,23.201905 17.9851834,24 C17.9851834,27.3165569 20.6834431,30.0161101 24,30.0161101 C27.3178504,30.0161101 30.0161101,27.3165569 30.0161101,24 C30.0161101,23.201905 29.8544214,22.4400282 29.5724365,21.7415334 L32.8566557,21.7415334 L32.8566557,30.7482361 L32.8566557,30.7482361 Z" id="Shape" fill="#000000"></path>
                </g>
            </g>
        </g>
    </g>
</svg>