<?xml version="1.0" encoding="UTF-8" standalone="no"?>
<svg width="17px" height="13px" viewBox="0 0 17 13" version="1.1" xmlns="http://www.w3.org/2000/svg" xmlns:xlink="http://www.w3.org/1999/xlink">
    <!-- Generator: Sketch 42 (36781) - http://www.bohemiancoding.com/sketch -->
    <title>ixd-icon</title>
    <desc>Created with Sketch.</desc>
    <defs></defs>
    <g id="Page-1" stroke="none" stroke-width="1" fill="none" fill-rule="evenodd">
        <g id="Portfolio_AMMA" transform="translate(-870.000000, -960.000000)">
            <g id="Introduction" transform="translate(513.000000, 160.000000)">
                <g id="About-the-process" transform="translate(8.000000, 795.000000)">
                    <g id="Group-21-Copy-2" transform="translate(282.000000, 0.000000)">
                        <g id="ixd-icon" transform="translate(63.000000, 0.000000)">
                            <polygon id="Shape" points="0 0 24 0 24 24 0 24"></polygon>
                            <path d="M10,18 L15,18 L15,12 L10,12 L10,18 Z M4,18 L9,18 L9,5 L4,5 L4,18 Z M16,18 L21,18 L21,12 L16,12 L16,18 Z M10,5 L10,11 L21,11 L21,5 L10,5 Z" id="Shape" fill="#0A6155" fill-rule="nonzero"></path>
                        </g>
                    </g>
                </g>
            </g>
        </g>
    </g>
</svg>