<?xml version="1.0" encoding="UTF-8" standalone="no"?>
<svg width="24px" height="14px" viewBox="0 0 24 14" version="1.1" xmlns="http://www.w3.org/2000/svg" xmlns:xlink="http://www.w3.org/1999/xlink">
    <!-- Generator: Sketch 42 (36781) - http://www.bohemiancoding.com/sketch -->
    <title>strategy-icon</title>
    <desc>Created with Sketch.</desc>
    <defs>
        <polygon id="path-1" points="0 0 24 0 24 24 0 24"></polygon>
    </defs>
    <g id="Page-1" stroke="none" stroke-width="1" fill="none" fill-rule="evenodd">
        <g id="Portfolio_AMMA" transform="translate(-715.000000, -960.000000)">
            <g id="Introduction" transform="translate(513.000000, 160.000000)">
                <g id="About-the-process" transform="translate(8.000000, 795.000000)">
                    <g id="Group-21-Copy" transform="translate(135.000000, 0.000000)">
                        <g id="strategy-icon" transform="translate(59.000000, 0.000000)">
                            <mask id="mask-2" fill="white">
                                <use xlink:href="#path-1"></use>
                            </mask>
                            <g id="a"></g>
                            <path d="M24,7.18181818 C24,8.38181818 23.0181818,9.36363636 21.8181818,9.36363636 C21.6218182,9.36363636 21.4363636,9.34181818 21.2618182,9.28727273 L17.3781818,13.16 C17.4327273,13.3345455 17.4545455,13.5309091 17.4545455,13.7272727 C17.4545455,14.9272727 16.4727273,15.9090909 15.2727273,15.9090909 C14.0727273,15.9090909 13.0909091,14.9272727 13.0909091,13.7272727 C13.0909091,13.5309091 13.1127273,13.3345455 13.1672727,13.16 L10.3854545,10.3781818 C10.2109091,10.4327273 10.0145455,10.4545455 9.81818182,10.4545455 C9.62181818,10.4545455 9.42545455,10.4327273 9.25090909,10.3781818 L4.28727273,15.3527273 C4.34181818,15.5272727 4.36363636,15.7127273 4.36363636,15.9090909 C4.36363636,17.1090909 3.38181818,18.0909091 2.18181818,18.0909091 C0.981818182,18.0909091 0,17.1090909 0,15.9090909 C0,14.7090909 0.981818182,13.7272727 2.18181818,13.7272727 C2.37818182,13.7272727 2.56363636,13.7490909 2.73818182,13.8036364 L7.71272727,8.84 C7.65818182,8.66545455 7.63636364,8.46909091 7.63636364,8.27272727 C7.63636364,7.07272727 8.61818182,6.09090909 9.81818182,6.09090909 C11.0181818,6.09090909 12,7.07272727 12,8.27272727 C12,8.46909091 11.9781818,8.66545455 11.9236364,8.84 L14.7054545,11.6218182 C14.88,11.5672727 15.0763636,11.5454545 15.2727273,11.5454545 C15.4690909,11.5454545 15.6654545,11.5672727 15.84,11.6218182 L19.7127273,7.73818182 C19.6581818,7.56363636 19.6363636,7.37818182 19.6363636,7.18181818 C19.6363636,5.98181818 20.6181818,5 21.8181818,5 C23.0181818,5 24,5.98181818 24,7.18181818 Z" id="Shape" fill="#0A6155" fill-rule="nonzero" mask="url(#mask-2)"></path>
                        </g>
                    </g>
                </g>
            </g>
        </g>
    </g>
</svg>