<?xml version="1.0" encoding="UTF-8" standalone="no"?>
<svg width="48px" height="48px" viewBox="0 0 48 48" version="1.1" xmlns="http://www.w3.org/2000/svg" xmlns:xlink="http://www.w3.org/1999/xlink">
    <!-- Generator: Sketch 42 (36781) - http://www.bohemiancoding.com/sketch -->
    <title>behance</title>
    <desc>Created with Sketch.</desc>
    <defs>
        <circle id="path-1" cx="24" cy="24" r="24"></circle>
        <mask id="mask-2" maskContentUnits="userSpaceOnUse" maskUnits="objectBoundingBox" x="0" y="0" width="48" height="48" fill="white">
            <use xlink:href="#path-1"></use>
        </mask>
    </defs>
    <g id="Portfolio" stroke="none" stroke-width="1" fill="none" fill-rule="evenodd">
        <g id="Katjaleena-homepage-V2" transform="translate(-744.000000, -982.000000)">
            <g id="social-media" transform="translate(675.000000, 982.000000)">
                <g id="behance" transform="translate(69.000000, 0.000000)">
                    <rect id="Rectangle" x="0" y="0" width="48" height="48"></rect>
                    <use id="Oval" stroke="#000000" mask="url(#mask-2)" stroke-width="4" xlink:href="#path-1"></use>
                    <path d="M23.602938,17.9515435 C24.0341034,18.586421 24.251042,19.3425672 24.251042,20.2256889 C24.251042,21.1344911 24.0341034,21.8663836 23.5975146,22.418513 C23.350747,22.728105 22.9914425,23.0120165 22.5155335,23.2673942 C23.2382101,23.5455989 23.7819124,23.9835931 24.1520638,24.5828033 C24.5195035,25.1805868 24.7025454,25.9096259 24.7025454,26.7656405 C24.7025454,27.6473356 24.493742,28.4405758 24.0720677,29.1396544 C23.8049621,29.6033289 23.4700632,29.995669 23.0700827,30.3123944 C22.6185793,30.6762006 22.0870799,30.9244448 21.4715167,31.0599805 C20.8559536,31.1955161 20.1902234,31.2611439 19.4702585,31.2611439 L13.0909091,31.2611439 L13.0909091,16.3636364 L19.9326088,16.3636364 C21.6599821,16.3921702 22.8816173,16.9200459 23.602938,17.9515435 L23.602938,17.9515435 Z M15.9138221,18.9516539 L15.9138221,22.2387499 L19.3563658,22.2387499 C19.9692172,22.2387499 20.4695318,22.1146278 20.8545977,21.8678103 C21.235596,21.6224194 21.4294849,21.185852 21.4294849,20.5609613 C21.4294849,19.8661628 21.1759379,19.408195 20.6688441,19.1842045 C20.2308994,19.0301219 19.6736384,18.9516539 18.9957054,18.9516539 L15.9138221,18.9516539 L15.9138221,18.9516539 Z M15.9138221,24.7026453 L15.9138221,28.6745531 L19.3509423,28.6745531 C19.9651496,28.6745531 20.4437703,28.5875249 20.7854485,28.4134686 C21.4064352,28.0881831 21.7155726,27.4689992 21.7155726,26.5544903 C21.7155726,25.7769437 21.4172821,25.2462146 20.8152776,24.9551696 C20.477667,24.7939535 20.0058256,24.7083521 19.3997535,24.7026453 L15.9138221,24.7026453 L15.9138221,24.7026453 Z M33.2621273,20.4696531 C33.9942949,20.8134856 34.5962994,21.3570549 35.0694967,22.0989342 C35.5020179,22.7537854 35.7799704,23.512785 35.906066,24.3759331 C35.9792827,24.8824084 36.0104676,25.6114475 35.996909,26.5630504 L28.3701628,26.5630504 C28.4149064,27.6687359 28.7769226,28.4434292 29.4657026,28.8871301 C29.8846651,29.1639081 30.3876914,29.3008705 30.9761373,29.3008705 C31.5971239,29.3008705 32.1055736,29.1339476 32.4947072,28.7972485 C32.708934,28.6146321 32.8960435,28.3621078 33.0587474,28.0382489 L35.8531872,28.0382489 C35.7799704,28.6916734 35.4410039,29.3550847 34.8389994,30.0313362 C33.902096,31.1013545 32.5882619,31.6363636 30.9015646,31.6363636 C29.5077344,31.6363636 28.2766081,31.1855293 27.214965,30.2810072 C26.1465426,29.3779118 25.616399,27.9069933 25.616399,25.872532 C25.616399,23.9621927 26.0963756,22.4998344 27.0563287,21.4797503 C28.0189936,20.4639463 29.2663903,19.9531909 30.7998747,19.9531909 C31.7110166,19.9531909 32.5326714,20.1243939 33.2621273,20.4696531 L33.2621273,20.4696531 Z M29.167412,22.9578022 C28.7809902,23.3772494 28.5369344,23.9464991 28.4379561,24.662698 L33.1550139,24.662698 C33.1062027,23.8979916 32.860791,23.318755 32.4269139,22.9221349 C31.9876133,22.5269415 31.4466228,22.3286315 30.8012305,22.3286315 C30.1002478,22.3286315 29.5538338,22.5383551 29.167412,22.9578022 L29.167412,22.9578022 Z M27.7301941,18.9131332 L33.7963385,18.9131332 L33.7963385,17.0598616 L27.7301941,17.0598616 L27.7301941,18.9131332 Z" id="Shape" fill="#000000"></path>
                </g>
            </g>
        </g>
    </g>
</svg>