<?xml version="1.0" encoding="UTF-8" standalone="no"?>
<svg width="48px" height="48px" viewBox="0 0 48 48" version="1.1" xmlns="http://www.w3.org/2000/svg" xmlns:xlink="http://www.w3.org/1999/xlink">
    <!-- Generator: Sketch 42 (36781) - http://www.bohemiancoding.com/sketch -->
    <title>behance</title>
    <desc>Created with Sketch.</desc>
    <defs>
        <circle id="path-1" cx="24" cy="24" r="24"></circle>
        <mask id="mask-2" maskContentUnits="userSpaceOnUse" maskUnits="objectBoundingBox" x="0" y="0" width="48" height="48" fill="white">
            <use xlink:href="#path-1"></use>
        </mask>
    </defs>
    <g id="Social-Icons" stroke="none" stroke-width="1" fill="none" fill-rule="evenodd">
        <g transform="translate(-180.000000, -240.000000)" id="behance">
            <g transform="translate(180.000000, 240.000000)">
                <rect id="Rectangle" x="0" y="0" width="48" height="48"></rect>
                <use id="Oval" stroke="#0A6155" mask="url(#mask-2)" stroke-width="4" xlink:href="#path-1"></use>
                <path d="M23.5537434,17.5595516 C23.9866197,18.183092 24.2044191,18.9257356 24.2044191,19.7930873 C24.2044191,20.6856609 23.9866197,21.4044839 23.5482984,21.9467539 C23.3005515,22.2508174 22.9398212,22.529659 22.4620237,22.7804764 C23.1875681,23.0537132 23.7334279,23.483886 24.1050482,24.0723961 C24.4739459,24.6595049 24.6577142,25.3755255 24.6577142,26.2162541 C24.6577142,27.0822046 24.4480822,27.8612798 24.0247346,28.5478748 C23.7565691,29.0032695 23.4203412,29.3886035 23.0187735,29.699673 C22.5654785,30.0569827 22.0318699,30.300794 21.413864,30.4339094 C20.7958581,30.5670248 20.1274862,30.6314806 19.4046643,30.6314806 L13,30.6314806 L13,16 L19.8688493,16 C21.6030773,16.0280243 22.8295603,16.5464736 23.5537434,17.5595516 L23.5537434,17.5595516 Z M15.834115,18.5418029 L15.834115,21.7702008 L19.2903196,21.7702008 C19.905603,21.7702008 20.4079029,21.6482952 20.7944969,21.4058851 C21.1770071,21.1648762 21.3716654,20.7361046 21.3716654,20.1223727 C21.3716654,19.4399813 21.1171123,18.9901915 20.6080061,18.7702008 C20.1683236,18.6188697 19.6088513,18.5418029 18.9282281,18.5418029 L15.834115,18.5418029 L15.834115,18.5418029 Z M15.834115,24.1900981 L15.834115,28.0910789 L19.2848746,28.0910789 C19.9015193,28.0910789 20.3820392,28.0056049 20.7250733,27.8346567 C21.3485242,27.5151798 21.6588884,26.9070528 21.6588884,26.0088744 C21.6588884,25.2452125 21.3594142,24.7239608 20.7550208,24.438113 C20.4160704,24.2797758 19.9423567,24.1957029 19.3338795,24.1900981 L15.834115,24.1900981 L15.834115,24.1900981 Z M33.2512627,20.032695 C33.9863358,20.3703877 34.5907292,20.9042504 35.0658042,21.6328818 C35.5000418,22.2760392 35.7790973,23.0214853 35.9056932,23.86922 C35.9792005,24.3666511 36.0105092,25.0826716 35.9968967,26.0172816 L28.3398857,26.0172816 C28.3848068,27.1032228 28.7482596,27.8640822 29.4397728,28.2998599 C29.8603979,28.5716955 30.3654204,28.7062121 30.9562013,28.7062121 C31.5796521,28.7062121 32.0901195,28.54227 32.4807973,28.2115834 C32.6958742,28.0322279 32.8837262,27.784213 33.0470758,27.4661373 L35.8526046,27.4661373 C35.7790973,28.1078935 35.4387857,28.7594582 34.8343923,29.4236338 C33.893771,30.4745446 32.5747233,31 30.8813327,31 C29.4819714,31 28.2459597,30.5572163 27.1801038,29.6688463 C26.1074416,28.7818776 25.5751943,27.3372256 25.5751943,25.3390939 C25.5751943,23.4628678 26.0570755,22.0266231 27.0208379,21.0247548 C27.9873229,20.0270901 29.2396696,19.5254554 30.7792393,19.5254554 C31.6939968,19.5254554 32.5189122,19.6936011 33.2512627,20.032695 L33.2512627,20.032695 Z M29.1402986,22.4764129 C28.7523434,22.8883699 28.507319,23.4474545 28.407948,24.1508641 L33.1437243,24.1508641 C33.0947194,23.3998132 32.8483338,22.8309201 32.4127349,22.4413825 C31.9716911,22.0532461 31.4285538,21.8584773 30.7806005,21.8584773 C30.0768361,21.8584773 29.5282538,22.0644559 29.1402986,22.4764129 L29.1402986,22.4764129 Z M27.6973774,18.5039701 L33.7875938,18.5039701 L33.7875938,16.6837926 L27.6973774,16.6837926 L27.6973774,18.5039701 Z" id="Shape" fill="#0A6155"></path>
            </g>
        </g>
    </g>
</svg>