<?xml version="1.0" encoding="UTF-8" standalone="no"?>
<svg width="48px" height="48px" viewBox="0 0 48 48" version="1.1" xmlns="http://www.w3.org/2000/svg" xmlns:xlink="http://www.w3.org/1999/xlink">
    <!-- Generator: Sketch 42 (36781) - http://www.bohemiancoding.com/sketch -->
    <title>twitter</title>
    <desc>Created with Sketch.</desc>
    <defs>
        <circle id="path-1" cx="24" cy="24" r="24"></circle>
        <mask id="mask-2" maskContentUnits="userSpaceOnUse" maskUnits="objectBoundingBox" x="0" y="0" width="48" height="48" fill="white">
            <use xlink:href="#path-1"></use>
        </mask>
    </defs>
    <g id="Social-Icons" stroke="none" stroke-width="1" fill="none" fill-rule="evenodd">
        <g transform="translate(-120.000000, -60.000000)" id="twitter">
            <g transform="translate(120.000000, 60.000000)">
                <rect id="Rectangle" x="0" y="0" width="48" height="48"></rect>
                <use id="Oval" stroke="#0A6155" mask="url(#mask-2)" stroke-width="4" xlink:href="#path-1"></use>
                <path d="M33.2905441,18.161924 C34.2652462,17.5379171 35.0131479,16.5484616 35.3641486,15.3697819 C34.4515466,15.9490105 33.4430944,16.3679041 32.3671421,16.5946844 C31.5085402,15.6124512 30.2813876,15 28.9232846,15 C26.317779,15 24.2063744,17.2605807 24.2063744,20.0483894 C24.2063744,20.4441716 24.2455244,20.8298426 24.3265246,21.19818 C20.4061161,20.9872887 16.9298585,18.9794887 14.6011035,15.9230103 C14.1947526,16.6712408 13.9625521,17.5379171 13.9625521,18.4623718 C13.9625521,20.2130579 14.7955039,21.7586307 16.0618067,22.6657518 C15.288255,22.6397516 14.5606034,22.4100823 13.923402,22.0345226 L13.923402,22.0966344 C13.923402,24.5435505 15.5488055,26.5845732 17.7101602,27.0468005 C17.3132594,27.1652463 16.8974585,27.2244692 16.4654575,27.2244692 C16.1617069,27.2244692 15.8647062,27.1941355 15.5785056,27.1349126 C16.1779069,29.1398238 17.9207607,30.6016178 19.9862652,30.6406182 C18.3703117,31.9955222 16.3358573,32.8015311 14.1259024,32.8015311 C13.7452016,32.8015311 13.3685508,32.7798642 13,32.732197 C15.0884545,34.1636574 17.5684099,35 20.2333157,35 C28.9138346,35 33.6577449,27.3068034 33.6577449,20.6348404 C33.6577449,20.4152824 33.6550449,20.1971689 33.6455949,19.9819442 C34.5676469,19.2698252 35.3695486,18.3800376 36,17.3674707 C35.1535482,17.7690308 34.2436462,18.0405893 33.2905441,18.161924 Z" id="Shape" fill="#0A6155"></path>
            </g>
        </g>
    </g>
</svg>